<svg height='200' width='200'  fill="#FFFFFF" xmlns="http://www.w3.org/2000/svg" xmlns:xlink="http://www.w3.org/1999/xlink" version="1.1" x="0px" y="0px" viewBox="0 0 48 48" enable-background="new 0 0 48 48" xml:space="preserve"><g><g><ellipse fill="none" stroke="#FFFFFF" stroke-width="2" stroke-linecap="round" stroke-linejoin="round" stroke-miterlimit="10" cx="24.212" cy="15.703" rx="14.58" ry="14.704"></ellipse><ellipse fill="none" stroke="#FFFFFF" stroke-width="2" stroke-linecap="round" stroke-linejoin="round" stroke-miterlimit="10" cx="24.213" cy="15.703" rx="9.164" ry="14.704"></ellipse><ellipse fill="none" stroke="#FFFFFF" stroke-width="2" stroke-linecap="round" stroke-linejoin="round" stroke-miterlimit="10" cx="24.213" cy="15.703" rx="3.555" ry="14.704"></ellipse><line fill="none" stroke="#FFFFFF" stroke-width="2" stroke-linecap="round" stroke-linejoin="round" stroke-miterlimit="10" x1="9.824" y1="15.703" x2="38.603" y2="15.703"></line><g><line fill="none" stroke="#FFFFFF" stroke-width="2" stroke-linecap="round" stroke-linejoin="round" stroke-miterlimit="10" x1="11.155" y1="9.141" x2="37.271" y2="9.141"></line><line fill="none" stroke="#FFFFFF" stroke-width="2" stroke-linecap="round" stroke-linejoin="round" stroke-miterlimit="10" x1="11.155" y1="22.265" x2="37.271" y2="22.265"></line></g></g><path fill="none" stroke="#FFFFFF" stroke-width="2" stroke-linecap="round" stroke-linejoin="round" stroke-miterlimit="10" d="   M41.146,29.361c0,1.627-1.132,2.958-2.516,2.958H9.796c-1.384,0-2.516-1.331-2.516-2.958V12.079c0-1.625,1.131-2.958,2.516-2.958   H38.63c1.384,0,2.516,1.333,2.516,2.958V29.361z"></path><polygon fill="none" stroke="#FFFFFF" stroke-width="2" stroke-linecap="round" stroke-linejoin="round" stroke-miterlimit="10" points="   47,47 1,47 7.614,32.319 40.385,32.319  "></polygon><g><g><line fill="none" stroke="#FFFFFF" stroke-width="2" stroke-linecap="round" stroke-linejoin="round" stroke-miterlimit="10" x1="12.493" y1="37.254" x2="14.567" y2="37.254"></line><line fill="none" stroke="#FFFFFF" stroke-width="2" stroke-linecap="round" stroke-linejoin="round" stroke-miterlimit="10" x1="19.472" y1="37.254" x2="21.548" y2="37.254"></line><line fill="none" stroke="#FFFFFF" stroke-width="2" stroke-linecap="round" stroke-linejoin="round" stroke-miterlimit="10" x1="26.452" y1="37.254" x2="28.527" y2="37.254"></line><line fill="none" stroke="#FFFFFF" stroke-width="2" stroke-linecap="round" stroke-linejoin="round" stroke-miterlimit="10" x1="33.433" y1="37.254" x2="35.508" y2="37.254"></line></g><g><line fill="none" stroke="#FFFFFF" stroke-width="2" stroke-linecap="round" stroke-linejoin="round" stroke-miterlimit="10" x1="10.719" y1="42.064" x2="13.113" y2="42.064"></line><line fill="none" stroke="#FFFFFF" stroke-width="2" stroke-linecap="round" stroke-linejoin="round" stroke-miterlimit="10" x1="18.774" y1="42.064" x2="21.17" y2="42.064"></line><line fill="none" stroke="#FFFFFF" stroke-width="2" stroke-linecap="round" stroke-linejoin="round" stroke-miterlimit="10" x1="26.83" y1="42.064" x2="29.227" y2="42.064"></line><line fill="none" stroke="#FFFFFF" stroke-width="2" stroke-linecap="round" stroke-linejoin="round" stroke-miterlimit="10" x1="34.888" y1="42.064" x2="37.281" y2="42.064"></line></g></g></g></svg>